<svg width="1200" height="520" viewBox="0 0 1200 520" fill="none" xmlns="http://www.w3.org/2000/svg" role="img" aria-labelledby="title desc">
  <title id="title">stepglyph cover</title>
  <desc id="desc">A stylized local Studio window turning Computer Use screenshots into editable guide steps.</desc>
  <rect width="1200" height="520" rx="32" fill="#F6F8FB"/>
  <rect x="56" y="56" width="1088" height="408" rx="28" fill="#FFFFFF" stroke="#D8E0EA" stroke-width="2"/>
  <rect x="56" y="56" width="1088" height="74" rx="28" fill="#111827"/>
  <path d="M56 102H1144" stroke="#111827" stroke-width="56"/>
  <circle cx="94" cy="93" r="11" fill="#F87171"/>
  <circle cx="128" cy="93" r="11" fill="#FBBF24"/>
  <circle cx="162" cy="93" r="11" fill="#34D399"/>
  <rect x="212" y="82" width="132" height="22" rx="11" fill="#E5E7EB"/>
  <rect x="892" y="78" width="158" height="30" rx="15" fill="#2563EB"/>
  <rect x="96" y="164" width="238" height="248" rx="18" fill="#F8FAFC" stroke="#E2E8F0"/>
  <rect x="122" y="196" width="48" height="48" rx="14" fill="#DBEAFE"/>
  <rect x="192" y="200" width="96" height="14" rx="7" fill="#111827"/>
  <rect x="192" y="224" width="72" height="12" rx="6" fill="#64748B"/>
  <rect x="122" y="278" width="48" height="48" rx="14" fill="#DBEAFE"/>
  <rect x="192" y="282" width="116" height="14" rx="7" fill="#111827"/>
  <rect x="192" y="306" width="74" height="12" rx="6" fill="#64748B"/>
  <rect x="384" y="164" width="420" height="248" rx="18" fill="#E9EEF5" stroke="#CBD5E1"/>
  <rect x="420" y="198" width="348" height="178" rx="10" fill="#FFFFFF"/>
  <rect x="456" y="226" width="154" height="12" rx="6" fill="#E2E8F0"/>
  <rect x="522" y="266" width="210" height="64" rx="12" fill="#EFF6FF"/>
  <circle cx="550" cy="298" r="22" fill="#FFFFFF" stroke="#2563EB" stroke-width="8"/>
  <rect x="584" y="279" width="116" height="38" rx="9" fill="#2563EB"/>
  <rect x="606" y="292" width="72" height="12" rx="6" fill="#FFFFFF"/>
  <rect x="850" y="164" width="254" height="248" rx="18" fill="#FFFFFF" stroke="#E2E8F0"/>
  <rect x="880" y="196" width="64" height="15" rx="7.5" fill="#111827"/>
  <rect x="880" y="232" width="182" height="36" rx="10" fill="#FFFFFF" stroke="#CBD5E1"/>
  <rect x="898" y="244" width="96" height="12" rx="6" fill="#111827"/>
  <rect x="880" y="296" width="86" height="15" rx="7.5" fill="#111827"/>
  <rect x="880" y="332" width="182" height="36" rx="10" fill="#2563EB"/>
  <rect x="906" y="344" width="96" height="12" rx="6" fill="#FFFFFF"/>
  <text x="96" y="475" fill="#111827" font-family="Inter, ui-sans-serif, system-ui, -apple-system, BlinkMacSystemFont, 'Segoe UI', sans-serif" font-size="34" font-weight="800">stepglyph</text>
  <text x="286" y="475" fill="#64748B" font-family="Inter, ui-sans-serif, system-ui, -apple-system, BlinkMacSystemFont, 'Segoe UI', sans-serif" font-size="24" font-weight="600">Computer Use sessions into editable visual guides</text>
</svg>
