<svg width="1200" height="260" viewBox="0 0 1200 260" fill="none" xmlns="http://www.w3.org/2000/svg" role="img" aria-labelledby="title desc">
  <title id="title">Stepglyph workflow</title>
  <desc id="desc">An icon-based workflow showing chat, skill, API start, capture, finish, Studio review, and export.</desc>
  <defs>
    <linearGradient id="bg" x1="0" y1="0" x2="1200" y2="260" gradientUnits="userSpaceOnUse">
      <stop stop-color="#F8FAFC"/>
      <stop offset="0.5" stop-color="#EEF6FF"/>
      <stop offset="1" stop-color="#FFF7ED"/>
    </linearGradient>
    <linearGradient id="nodeA" x1="0" y1="0" x2="1" y2="1">
      <stop stop-color="#60A5FA"/>
      <stop offset="0.55" stop-color="#A7F3D0"/>
      <stop offset="1" stop-color="#F9A8D4"/>
    </linearGradient>
    <linearGradient id="nodeB" x1="0" y1="0" x2="1" y2="1">
      <stop stop-color="#2563EB"/>
      <stop offset="1" stop-color="#06B6D4"/>
    </linearGradient>
    <filter id="shadow" x="-20%" y="-20%" width="140%" height="150%" color-interpolation-filters="sRGB">
      <feDropShadow dx="0" dy="18" stdDeviation="14" flood-color="#0F172A" flood-opacity="0.14"/>
    </filter>
  </defs>

  <rect width="1200" height="260" rx="34" fill="url(#bg)"/>
  <path d="M132 130H1068" stroke="#CBD5E1" stroke-width="8" stroke-linecap="round"/>

  <g stroke="#2563EB" stroke-width="5" stroke-linecap="round" stroke-linejoin="round">
    <path d="M205 130H235"/>
    <path d="M225 116L239 130L225 144"/>
    <path d="M345 130H375"/>
    <path d="M365 116L379 130L365 144"/>
    <path d="M485 130H515"/>
    <path d="M505 116L519 130L505 144"/>
    <path d="M625 130H655"/>
    <path d="M645 116L659 130L645 144"/>
    <path d="M765 130H795"/>
    <path d="M785 116L799 130L785 144"/>
    <path d="M905 130H935"/>
    <path d="M925 116L939 130L925 144"/>
  </g>

  <g filter="url(#shadow)">
    <circle cx="130" cy="130" r="54" fill="white"/>
    <circle cx="130" cy="130" r="43" fill="url(#nodeA)" opacity="0.92"/>
    <path d="M105 116C105 106 113 98 123 98H141C151 98 159 106 159 116V128C159 138 151 146 141 146H126L110 158V146C107 145 105 141 105 137V116Z" fill="white" fill-opacity="0.95"/>
    <circle cx="124" cy="123" r="4" fill="#2563EB"/>
    <circle cx="138" cy="123" r="4" fill="#2563EB"/>
  </g>

  <g filter="url(#shadow)">
    <circle cx="270" cy="130" r="54" fill="white"/>
    <circle cx="270" cy="130" r="43" fill="url(#nodeB)" opacity="0.92"/>
    <path d="M250 95H280L292 107V165H250V95Z" fill="white" fill-opacity="0.95"/>
    <path d="M280 95V108H292" stroke="#2563EB" stroke-width="4" stroke-linecap="round" stroke-linejoin="round"/>
    <path d="M261 123H281M261 137H281M261 151H274" stroke="#2563EB" stroke-width="4" stroke-linecap="round"/>
  </g>

  <g filter="url(#shadow)">
    <circle cx="410" cy="130" r="54" fill="white"/>
    <circle cx="410" cy="130" r="43" fill="url(#nodeA)" opacity="0.92"/>
    <path d="M385 118H435V151C435 158 430 163 423 163H397C390 163 385 158 385 151V118Z" fill="white" fill-opacity="0.95"/>
    <path d="M394 99H426C431 99 435 103 435 108V118H385V108C385 103 389 99 394 99Z" fill="white" fill-opacity="0.95"/>
    <path d="M399 139H421M410 128V150" stroke="#2563EB" stroke-width="5" stroke-linecap="round"/>
  </g>

  <g filter="url(#shadow)">
    <circle cx="550" cy="130" r="54" fill="white"/>
    <circle cx="550" cy="130" r="43" fill="url(#nodeB)" opacity="0.92"/>
    <path d="M519 112H532L538 104H562L568 112H581V158H519V112Z" fill="white" fill-opacity="0.95"/>
    <circle cx="550" cy="136" r="15" stroke="#2563EB" stroke-width="5"/>
    <path d="M550 116V124M550 148V156M530 136H538M562 136H570" stroke="#2563EB" stroke-width="4" stroke-linecap="round"/>
  </g>

  <g filter="url(#shadow)">
    <circle cx="690" cy="130" r="54" fill="white"/>
    <circle cx="690" cy="130" r="43" fill="url(#nodeA)" opacity="0.92"/>
    <path d="M670 101V163" stroke="white" stroke-width="8" stroke-linecap="round"/>
    <path d="M674 106H714L704 121L714 136H674V106Z" fill="white" fill-opacity="0.95"/>
    <path d="M677 145L687 155L711 125" stroke="#2563EB" stroke-width="6" stroke-linecap="round" stroke-linejoin="round"/>
  </g>

  <g filter="url(#shadow)">
    <circle cx="830" cy="130" r="54" fill="white"/>
    <circle cx="830" cy="130" r="43" fill="url(#nodeB)" opacity="0.92"/>
    <rect x="798" y="105" width="64" height="45" rx="7" fill="white" fill-opacity="0.95"/>
    <path d="M810 163H850M830 150V163" stroke="white" stroke-width="7" stroke-linecap="round"/>
    <path d="M817 121H843M817 135H831" stroke="#2563EB" stroke-width="4" stroke-linecap="round"/>
    <path d="M843 136L858 151L848 154L844 165L829 150L839 147L843 136Z" fill="#2563EB"/>
  </g>

  <g filter="url(#shadow)">
    <circle cx="970" cy="130" r="54" fill="white"/>
    <circle cx="970" cy="130" r="43" fill="url(#nodeA)" opacity="0.92"/>
    <path d="M945 103H977L990 116V160H945V103Z" fill="white" fill-opacity="0.95"/>
    <path d="M977 103V117H990" stroke="#2563EB" stroke-width="4" stroke-linecap="round" stroke-linejoin="round"/>
    <path d="M957 129H978M957 143H970" stroke="#2563EB" stroke-width="4" stroke-linecap="round"/>
    <path d="M994 132H1014M1005 123L1016 132L1005 141" stroke="#2563EB" stroke-width="5" stroke-linecap="round" stroke-linejoin="round"/>
  </g>
</svg>
